<svg xmlns="http://www.w3.org/2000/svg" version="1.1" xmlns:xlink="http://www.w3.org/1999/xlink" xmlns:svgjs="http://svgjs.dev/svgjs" viewBox="0 0 1920 1080"><rect width="1920" height="1080" fill="#fb7f26"></rect><g transform="matrix(-2.112515728529184e-16,-1.15,1.15,-2.112515728529184e-16,303.4342193603518,1603.0993522644044)"><path d="M0,-1080C-6.373848405862058,-992.557814872888,-47.31632621319847,-704.3132859928659,-38.24309043517235,-555.3468892373284C-29.169854657146224,-406.38049248179084,45.05377167849795,-337.19532956209105,54.43941466815673,-186.2016194667747C63.825057657815506,-35.20790937145833,37.94857007341871,195.0329742142637,18.070767502780313,350.61537133456983C-1.8070350678580773,506.1977684548759,-52.38444534197464,596.0432883897048,-64.82740075567361,747.292763255062C-77.27035616937258,898.5422381204193,-69.58332807722833,1094.778081781596,-56.5869649794135,1258.1122205267134C-43.59060188159867,1421.4463592718307,3.7196170013131287,1576.9829658135516,13.150777831215379,1727.297595725766C22.58193866111763,1877.6122256379806,2.1917963052025633,2087.882932620961,0,2160L 1920 2160 L 1920 -1080 Z" fill="url(&quot;#SvgjsLinearGradient1380&quot;)"></path><path d="M320,-1080C327.72495319915936,-992.0885564189555,357.1934282915298,-741.3993893004359,366.3497191949561,-552.5313385137332C375.5060100983824,-363.6632877270305,385.959028640899,-119.32560780746692,374.93774542055786,53.20830472021618C363.9164622002167,225.74221724789928,317.7947602560819,301.3294377591559,300.22201987290924,482.67213665236545C282.6492794897366,664.014835545575,256.15570013714233,948.6217523138793,269.5013031215221,1141.2644980794732C282.84690610590184,1333.9072438450673,371.87918829944135,1468.7393609258418,380.2956377791877,1638.5286112459296C388.71208725893405,1808.3178615660174,330.04927296319795,2073.0881018743216,320,2160L 1920 2160 L 1920 -1080 Z" fill="url(&quot;#SvgjsLinearGradient1381&quot;)"></path><path d="M640,-1080C642.6562590086262,-1006.0442830562256,655.2997503007317,-793.8174762060448,655.9375540517572,-636.2656983373539C656.5753578027826,-478.713920468663,636.1331012919607,-295.3751664408912,643.8268225061524,-134.68933278785465C651.5205437203442,25.996500865181872,698.4983982939298,173.39862341529698,702.0998813369079,327.8493035808652C705.701364379886,482.2999837464334,665.2748234740304,651.3642150231084,665.435720764021,792.0147482055545C665.5966180540115,932.6652813880006,709.8754518356773,1012.123341473965,703.0652650768512,1171.7525026755416C696.2550783180252,1331.3816638771182,635.085477723873,1585.081799194271,624.5746002110645,1749.7897154150141C614.063722698256,1914.4976316357572,637.4291000351774,2091.631619235836,640,2160L 1920 2160 L 1920 -1080 Z" fill="url(&quot;#SvgjsLinearGradient1382&quot;)"></path><path d="M960,-1080C955.0645729536684,-989.7655756726585,938.9182427950727,-724.1552374456387,930.3874377220101,-538.5934540359513C921.8566326489474,-353.0316706262638,893.9949747146496,-139.02096317914152,908.8151695616241,33.3707004581246C923.6353644085985,205.76236409539075,1005.4560518796335,316.9533983072598,1019.3086068038566,495.7565277876455C1033.1611617280796,674.5596572680312,1002.4200261686472,917.0829067928722,991.9304991069628,1106.189477340439C981.4409720452784,1295.296047888006,961.693194284911,1454.7608639631194,956.3714444337505,1630.3959510730463C951.0496945825901,1806.0310381829731,959.3952407389584,2071.7326585121746,960,2160L 1920 2160 L 1920 -1080 Z" fill="url(&quot;#SvgjsLinearGradient1383&quot;)"></path><path d="M1280,-1080C1289.6965825146872,-995.8797887390341,1331.1410251020743,-735.0025428072823,1338.1794950881233,-575.2787324342044C1345.2179650741723,-415.5549220611264,1335.647687205888,-266.4520031382542,1322.2308199162933,-121.65713776153238C1308.8139526266987,23.137727615189462,1260.1763700310378,151.93558218922954,1257.6782913505563,293.49045982612665C1255.1802126700748,435.04533746302377,1296.7073356909552,578.0627249513435,1307.242347833404,727.6721280598504C1317.7773599758527,877.2815311683572,1324.4097018392936,1032.2297157592316,1320.8883642052488,1191.1468784771678C1317.367026571204,1350.064041195104,1292.9290493966769,1519.6995841136625,1286.1143220291353,1681.1751043674678C1279.2995946615938,1842.6506246212732,1281.0190536715227,2080.1958507279114,1280,2160L 1920 2160 L 1920 -1080 Z" fill="url(&quot;#SvgjsLinearGradient1384&quot;)"></path><path d="M1600,-1080C1600.8857302329075,-987.7185383079415,1611.2382454126623,-706.3628694533921,1605.3143813974452,-526.3112298476489C1599.3905173822282,-346.2595902419056,1566.0284375644048,-184.03212772802067,1564.456815908697,0.3098376344595266C1562.8851942529893,184.6518029969397,1590.1262620337416,401.71403945748636,1595.8846514631991,579.7405623272323C1601.6430408926567,757.7670851969782,1602.3969637896403,893.1207342936159,1599.007152485443,1068.4689748529347C1595.6173411812456,1243.8172154122535,1575.3803090522556,1449.908168158634,1575.545783638015,1631.830005683145C1575.7112582237746,1813.7518432076558,1595.9242972730026,2071.9716676138573,1600,2160L 1920 2160 L 1920 -1080 Z" fill="url(&quot;#SvgjsLinearGradient1385&quot;)"></path></g><defs><linearGradient x1="0.1" y1="0" x2="0" y2="1" id="SvgjsLinearGradient1380"><stop stop-color="#fb7f26" offset="0"></stop><stop stop-color="#fb5b26" offset="0"></stop></linearGradient><linearGradient x1="0.1" y1="0" x2="0" y2="1" id="SvgjsLinearGradient1381"><stop stop-color="#fc9347" offset="0"></stop><stop stop-color="#fc7547" offset="0.16666666666666666"></stop></linearGradient><linearGradient x1="0.1" y1="0" x2="0" y2="1" id="SvgjsLinearGradient1382"><stop stop-color="#fca668" offset="0"></stop><stop stop-color="#fc8d68" offset="0.3333333333333333"></stop></linearGradient><linearGradient x1="0.1" y1="0" x2="0" y2="1" id="SvgjsLinearGradient1383"><stop stop-color="#fdba89" offset="0"></stop><stop stop-color="#fda789" offset="0.5"></stop></linearGradient><linearGradient x1="0.1" y1="0" x2="0" y2="1" id="SvgjsLinearGradient1384"><stop stop-color="#fdcdaa" offset="0"></stop><stop stop-color="#fdbfaa" offset="0.6666666666666666"></stop></linearGradient><linearGradient x1="0.1" y1="0" x2="0" y2="1" id="SvgjsLinearGradient1385"><stop stop-color="#fee1cb" offset="0"></stop><stop stop-color="#fed8cb" offset="0.8333333333333334"></stop></linearGradient></defs></svg>